<?xml version="1.0" encoding="UTF-8" standalone="no"?>
<svg
   xmlns:dc="http://purl.org/dc/elements/1.1/"
   xmlns:cc="http://creativecommons.org/ns#"
   xmlns:rdf="http://www.w3.org/1999/02/22-rdf-syntax-ns#"
   xmlns:svg="http://www.w3.org/2000/svg"
   xmlns="http://www.w3.org/2000/svg"
   xml:space="preserve"
   style="enable-background:new 0 0 31.806 31.806;"
   viewBox="0 0 31.806 31.806"
   height="512px"
   width="512px"
   y="0px"
   x="0px"
   id="Capa_1"
   version="1.1"><metadata
     id="metadata45"><rdf:RDF><cc:Work
         rdf:about=""><dc:format>image/svg+xml</dc:format><dc:type
           rdf:resource="http://purl.org/dc/dcmitype/StillImage" /><dc:title></dc:title></cc:Work></rdf:RDF></metadata><defs
     id="defs43" /><g
     style="fill:#b20f64;fill-opacity:1"
     id="g3"><g
       style="fill:#b20f64;fill-opacity:1"
       id="g5"><path
         style="fill:#b20f64;fill-opacity:1"
         id="path7"
         fill="#333333"
         d="M1.286,12.465c-0.685,0.263-1.171,0.879-1.268,1.606c-0.096,0.728,0.213,1.449,0.806,1.88l6.492,4.724L30.374,2.534    L9.985,22.621l8.875,6.458c0.564,0.41,1.293,0.533,1.964,0.33c0.67-0.204,1.204-0.713,1.444-1.368l9.494-25.986    c0.096-0.264,0.028-0.559-0.172-0.756c-0.199-0.197-0.494-0.259-0.758-0.158L1.286,12.465z" /><path
         style="fill:#b20f64;fill-opacity:1"
         id="path9"
         fill="#333333"
         d="M5.774,22.246l0.055,0.301l1.26,6.889c0.094,0.512,0.436,0.941,0.912,1.148c0.476,0.206,1.025,0.162,1.461-0.119    c1.755-1.132,4.047-2.634,3.985-2.722L5.774,22.246z" /></g></g><g
     id="g11" /><g
     id="g13" /><g
     id="g15" /><g
     id="g17" /><g
     id="g19" /><g
     id="g21" /><g
     id="g23" /><g
     id="g25" /><g
     id="g27" /><g
     id="g29" /><g
     id="g31" /><g
     id="g33" /><g
     id="g35" /><g
     id="g37" /><g
     id="g39" /></svg>